<svg width="109" height="40" viewBox="0 0 109 40" fill="none" xmlns="http://www.w3.org/2000/svg">
<g clip-path="url(#clip0_176_349)">
<path d="M58.7369 22.2993H51.3948L50.1751 25.9579H45.1875L52.3635 6.04688H57.8216L64.9996 25.9619H59.9566L58.7369 22.2993ZM57.5172 18.6128L55.0797 11.2377L52.6146 18.6128H57.5172Z" fill="white"/>
<path d="M85.7539 25.9619H80.9995L73.0921 13.6541V25.9619H68.3477V5.90893H73.0921L80.9995 18.3208V5.89893H85.744L85.7539 25.9619Z" fill="white"/>
<path d="M105.788 7.55121C107.369 8.77939 108.357 10.4463 108.753 12.552H103.734C103.406 11.8383 102.875 11.24 102.209 10.8337C101.464 10.3914 100.61 10.1696 99.7463 10.1936C98.2491 10.1936 97.0478 10.7083 96.1424 11.7378C95.237 12.7673 94.7843 14.1622 94.7843 15.9225C94.7843 17.8321 95.2588 19.299 96.2077 20.3231C97.1566 21.3473 98.5094 21.858 100.266 21.8554C101.331 21.8746 102.372 21.5409 103.231 20.9052C104.111 20.2272 104.744 19.2744 105.032 18.1948H99.0464V14.6983H109V19.499C108.618 20.6913 108.014 21.7986 107.221 22.7615C106.369 23.7923 105.306 24.623 104.105 25.1959C102.75 25.8405 101.266 26.1608 99.768 26.132C97.7911 26.132 96.0647 25.7019 94.5886 24.8418C93.1248 23.9979 91.9352 22.7413 91.1647 21.2253C90.3404 19.584 89.9263 17.7632 89.9588 15.9225C89.9261 14.0817 90.3401 12.2608 91.1647 10.6197C91.9316 9.10373 93.1151 7.84436 94.5728 6.99312C96.0423 6.13033 97.7556 5.6996 99.7126 5.70093C102.172 5.70493 104.197 6.32169 105.788 7.55121Z" fill="white"/>
<path fill-rule="evenodd" clip-rule="evenodd" d="M15.58 6.6667L12.9962 11.1054L11.1894 14.2298L11.0016 14.5499C10.0704 16.1989 9.57796 18.0642 9.57242 19.9635C9.56687 21.8627 10.0484 23.7309 10.9699 25.3855C11.0411 25.5135 11.1162 25.6435 11.1933 25.7676L12.9962 28.892L16.5546 34.997L18.8121 38.8895C19.0113 39.2296 19.2957 39.5104 19.6365 39.7037C19.9788 39.8981 20.3648 40.0001 20.7574 39.9997H25.8122C26.228 39.9985 26.6365 39.889 26.9983 39.6817C27.3605 39.4741 27.662 39.1732 27.8721 38.8095C28.0558 38.4966 28.1528 38.1394 28.1528 37.7754C28.1528 37.4114 28.0558 37.0541 27.8721 36.7412L26.5357 34.4409L24.2643 30.5343L18.8754 21.2409L18.7647 21.0529L18.7172 20.9708C18.5647 20.6545 18.4894 20.3057 18.4977 19.9539C18.5059 19.602 18.5975 19.2572 18.7647 18.9485L18.8754 18.7625L20.7277 15.562L22.6808 18.9405L28.1172 28.316L30.3926 32.2105L31.0331 33.3207L34.0873 28.0539L34.3502 27.6098L35.8704 25.0095C35.9701 24.8386 36.0226 24.6438 36.0226 24.4454C36.0226 24.247 35.9701 24.0522 35.8704 23.8813L30.5468 14.6979L30.2779 14.2298L25.8873 6.6547L24.9345 5.01045L22.669 1.10987C22.4709 0.776015 22.1902 0.500228 21.8545 0.309747C21.5177 0.10808 21.1348 -0.00152027 20.7435 -0.00830078L20.7297 -0.00830078C20.3393 -0.00724812 19.9559 0.0961254 19.6167 0.291744C19.2808 0.485645 19.0008 0.764887 18.8042 1.10187L16.5348 5.01645L15.58 6.6667ZM12.0374 33.9528C12.0551 35.1612 11.7171 36.3476 11.0664 37.3611C10.4157 38.3746 9.4817 39.1692 8.38333 39.644C7.28496 40.1188 6.07183 40.2522 4.8983 40.0273C3.72477 39.8024 2.6439 39.2293 1.79321 38.381C0.942514 37.5326 0.360467 36.4474 0.121123 35.2634C-0.11822 34.0793 -0.00403929 32.85 0.449138 31.7318C0.902315 30.6136 1.674 29.6571 2.66601 28.984C3.65801 28.3109 4.82548 27.9516 6.01988 27.9519C6.80455 27.9456 7.58276 28.0958 8.31 28.3941C9.03723 28.6923 9.69923 29.1327 10.2581 29.6901C10.817 30.2474 11.2618 30.9108 11.5671 31.6422C11.8724 32.3736 12.0323 33.1588 12.0374 33.9528Z" fill="url(#paint0_linear_176_349)"/>
<path d="M53.476 33.0549L49.894 39.938H49.0498L45.4678 33.0549H46.3929L49.4907 39.0338L52.6102 33.0549H53.476Z" fill="white"/>
<path d="M60.3655 39.3099V39.938H54.6484V33.0549H60.1955V33.685H55.4985V36.1334H59.6815V36.7495H55.4985V39.3079L60.3655 39.3099Z" fill="white"/>
<path d="M69.1388 33.0549V39.938H68.4331L63.232 34.3571V39.942H62.376V33.0549H63.0837L68.2947 38.6398V33.0549H69.1388Z" fill="white"/>
<path d="M73.3437 33.685H70.5029V33.0549H77.0463V33.685H74.2016V39.938H73.3457L73.3437 33.685Z" fill="white"/>
<path d="M79.0506 39.2319C78.4654 38.7184 78.1729 37.973 78.1729 36.9955V33.0549H79.0229V36.9695C79.0229 37.7696 79.2344 38.3657 79.6575 38.7578C80.0805 39.1498 80.6927 39.3499 81.494 39.3579C82.3045 39.3579 82.9213 39.1578 83.3443 38.7578C83.7674 38.3577 83.9789 37.7576 83.9789 36.9695V33.0549H84.8131V36.9975C84.8131 37.975 84.5225 38.7204 83.9413 39.2339C83.3601 39.7473 82.5457 40.002 81.4979 39.998C80.4528 39.998 79.637 39.7426 79.0506 39.2319Z" fill="white"/>
<path d="M92.9179 39.9382L91.0676 37.7259C90.854 37.7459 90.6366 37.7559 90.4211 37.7559H88.2466V39.9382H87.3926V33.0552H90.4191C91.4511 33.0552 92.2603 33.2652 92.8467 33.6853C93.0809 33.8563 93.278 34.074 93.4257 34.325C93.5735 34.5761 93.6689 34.8551 93.7059 35.1449C93.743 35.4347 93.7209 35.7291 93.6411 36.0099C93.5614 36.2908 93.4256 36.5521 93.2421 36.7777C92.8739 37.1749 92.398 37.4532 91.8741 37.5779L93.851 39.9362L92.9179 39.9382ZM92.2359 36.6837C92.4326 36.536 92.5923 36.3437 92.7024 36.1222C92.8125 35.9008 92.8698 35.6564 92.8698 35.4085C92.8698 35.1607 92.8125 34.9162 92.7024 34.6948C92.5923 34.4734 92.4326 34.2811 92.2359 34.1333C91.8128 33.8333 91.2 33.6853 90.3994 33.6853H88.2505V37.1358H90.3994C91.2007 37.1358 91.8128 36.9851 92.2359 36.6837Z" fill="white"/>
<path d="M101.47 39.3099V39.938H95.749V33.0549H101.296V33.685H96.605V36.1334H100.788V36.7495H96.605V39.3079L101.47 39.3099Z" fill="white"/>
<path d="M103.985 39.752C103.517 39.6322 103.081 39.411 102.706 39.1039L103.042 38.5438C103.389 38.8188 103.785 39.0226 104.208 39.1439C104.695 39.2984 105.201 39.3767 105.711 39.3759C106.436 39.3759 106.979 39.2626 107.342 39.0359C107.503 38.9439 107.639 38.8126 107.737 38.6538C107.83 38.505 107.879 38.332 107.878 38.1557C107.885 38.0332 107.862 37.9109 107.81 37.7997C107.757 37.6834 107.68 37.5803 107.583 37.4976C107.369 37.3235 107.122 37.1949 106.857 37.1196C106.462 37.0036 106.067 36.9076 105.671 36.8275C105.179 36.7282 104.693 36.602 104.214 36.4495C103.867 36.3379 103.55 36.1485 103.285 35.8954C103.153 35.7641 103.049 35.6058 102.981 35.4311C102.912 35.2563 102.882 35.0689 102.89 34.8813C102.889 34.5371 103.003 34.2028 103.214 33.9331C103.474 33.616 103.816 33.3789 104.203 33.249C104.738 33.0642 105.302 32.9775 105.867 32.993C106.324 32.9925 106.78 33.0469 107.225 33.155C107.628 33.248 108.015 33.3989 108.376 33.6031L108.085 34.1832C107.743 33.992 107.377 33.848 106.998 33.7551C106.628 33.6626 106.248 33.6149 105.867 33.6131C105.157 33.6131 104.623 33.7291 104.266 33.9611C104.104 34.0599 103.968 34.1972 103.87 34.3612C103.779 34.5135 103.731 34.6888 103.732 34.8673C103.726 34.9903 103.749 35.1131 103.799 35.2253C103.852 35.3428 103.93 35.4473 104.027 35.5314C104.244 35.7097 104.496 35.8411 104.766 35.9174C105.062 36.0054 105.461 36.1021 105.962 36.2075C106.448 36.3035 106.928 36.4263 107.401 36.5755C107.748 36.6857 108.067 36.8737 108.332 37.1256C108.462 37.2557 108.563 37.4121 108.629 37.5844C108.694 37.7568 108.723 37.9413 108.714 38.1257C108.715 38.4709 108.599 38.806 108.384 39.0739C108.117 39.3926 107.766 39.6278 107.371 39.752C106.836 39.9299 106.274 40.0131 105.711 39.998C105.126 40.0005 104.544 39.917 103.983 39.75L103.985 39.752Z" fill="white"/>
</g>
<defs>
<linearGradient id="paint0_linear_176_349" x1="4.29606" y1="48.1729" x2="32.4189" y2="7.47558" gradientUnits="userSpaceOnUse">
<stop offset="0.13" stop-color="#D21FFF"/>
<stop offset="0.5" stop-color="#12D8FA"/>
<stop offset="1" stop-color="#A6FFCB"/>
</linearGradient>
<clipPath id="clip0_176_349">
<rect width="109" height="40" fill="white"/>
</clipPath>
</defs>
</svg>
